<?xml version="1.0"?>
<svg xmlns="http://www.w3.org/2000/svg" viewBox="0 0 32 32">
    <path style="text-indent:0;fill:#fff;text-align:start;line-height:normal;text-transform:none;block-progression:tb;-inkscape-font-specification:Sans" d="M 7 3 L 7 8 L 7 8.46875 L 7.375 8.78125 L 11.40625 12 L 8.34375 12 L 4.59375 9.1875 L 3.40625 10.8125 L 7.40625 13.8125 L 7.65625 14 L 8 14 L 11.21875 14 L 7.625 17 L 3 17 L 3 19 L 8 19 L 8.375 19 L 8.625 18.78125 L 10.03125 17.625 C 10.0222 17.751894 10 17.869463 10 18 C 10 18.175476 10.017577 18.351919 10.03125 18.53125 L 6.28125 22.28125 L 6 22.59375 L 6 23 L 6 29 L 8 29 L 8 23.4375 L 10.5625 20.875 C 10.835155 21.6299 11.182699 22.3758 11.625 23.0625 C 12.632927 24.627369 14.107729 26 16 26 C 17.892271 26 19.367073 24.627369 20.375 23.0625 C 20.817301 22.3758 21.164845 21.6299 21.4375 20.875 L 24 23.4375 L 24 29 L 26 29 L 26 23 L 26 22.59375 L 25.71875 22.28125 L 21.96875 18.53125 C 21.982423 18.351919 22 18.175476 22 18 C 22 17.880293 21.976373 17.772902 21.96875 17.65625 L 23.375 18.78125 L 23.65625 19 L 24 19 L 29 19 L 29 17 L 24.34375 17 L 20.59375 14 L 24 14 L 24.34375 14 L 24.59375 13.8125 L 28.59375 10.8125 L 27.40625 9.1875 L 23.65625 12 L 20.59375 12 L 24.625 8.78125 L 25 8.46875 L 25 8 L 25 3 L 23 3 L 23 7.53125 L 19.875 10.03125 C 19.720243 9.4106627 19.408026 8.8760942 19 8.40625 L 19 5 L 17 5 L 17 7.15625 C 16.680665 7.0732402 16.344096 7 16 7 C 15.655904 7 15.319335 7.0732402 15 7.15625 L 15 5 L 13 5 L 13 8.40625 C 12.591974 8.8760942 12.279757 9.4106627 12.125 10.03125 L 9 7.53125 L 9 3 L 7 3 z M 16 9 C 17.116414 9 18 9.883586 18 11 C 18 12.116414 17.116414 13 16 13 C 14.883586 13 14 12.116414 14 11 C 14 9.883586 14.883586 9 16 9 z M 16 15 C 17.231158 15 18.265749 15.295462 18.9375 15.78125 C 19.609251 16.267038 20 16.889813 20 18 C 20 19.110187 19.489323 20.755119 18.6875 22 C 17.885677 23.244881 16.868729 24 16 24 C 15.131271 24 14.114323 23.244881 13.3125 22 C 12.510677 20.755119 12 19.110187 12 18 C 12 16.889813 12.390749 16.267038 13.0625 15.78125 C 13.734251 15.295462 14.768842 15 16 15 z"/>
</svg>
